<?xml version="1.0" encoding="UTF-8"?>
<svg id="_기본_비주얼" data-name="기본_비주얼" xmlns="http://www.w3.org/2000/svg" viewBox="0 0 1325.42 1290.84">
  <path d="M636.74,479.3l-.06.07c-8.52,10.1-7.97,25.01,1.26,34.46l81.38,83.32c4.23,4.33,1.17,11.62-4.89,11.63l-170.05.28c-14.16.02-25.63,11.52-25.6,25.69v.33c.02,14.16,11.52,25.63,25.69,25.6l170.1-.28c6.06,0,9.14,7.27,4.93,11.62l-81.1,83.58c-9.2,9.48-9.69,24.39-1.14,34.46h0c9.84,11.59,27.52,12.13,38.05,1.17,43.8-45.65,104.45-110.06,133.47-140.95,9.41-10.01,9.23-25.63-.36-35.46l-133.71-136.89c-10.58-10.83-28.19-10.19-37.95,1.38Z"/>
</svg>