<?xml version="1.0" encoding="UTF-8"?>
<svg id="_기본_비주얼" data-name="기본_비주얼" xmlns="http://www.w3.org/2000/svg" viewBox="0 0 2477.31 1332.85">
  <defs>
    <style>
      .cls-1 {
        stroke-dasharray: 115.71 115.71;
      }

      .cls-1, .cls-2 {
        fill: none;
        stroke: #000;
        stroke-linecap: round;
        stroke-miterlimit: 10;
        stroke-width: 20.79px;
      }
    </style>
  </defs>
  <path class="cls-2" d="M2382.97,138.37c-18.94-1.63-37.93-3.24-56.96-4.81"/>
  <path class="cls-1" d="M2210.67,124.53c-204.87-14.91-411.59-23.18-606.04-9.65-241.96,15.57-462.55,58.63-625.08,129.87-388.66,168.79-433.44,510.55,60.36,698.45,99,36.59,215.27,61.29,330.57,68.53,100.9,7.78,229.09-2.7,267.4-23.66,89.82-50.54-120.62-94.42-236.85-99.1-723.3-29.13-808.55,33.09-1117.36,181.86"/>
  <path class="cls-2" d="M231.46,1095.73c-16.58,7.82-33.83,15.84-51.84,24.08"/>
  <polygon points="202.38 1070.33 185.14 1117.1 231.92 1134.32 204.76 1146.86 157.99 1129.64 175.22 1082.87 202.38 1070.33"/>
</svg>