<?xml version="1.0" encoding="UTF-8"?>
<svg id="_기본_비주얼" data-name="기본_비주얼" xmlns="http://www.w3.org/2000/svg" viewBox="0 0 1210.73 596.33">
  <defs>
    <style>
      .cls-1 {
        fill: #fff;
        stroke: #284a9f;
        stroke-miterlimit: 10;
        stroke-width: 9.33px;
      }

      .cls-2 {
        fill: #0b4cdc;
      }
    </style>
  </defs>
  <path class="cls-1" d="M312.2-244.73h540.68v872.2c0,135.34-109.88,245.21-245.21,245.21h-50.26c-135.34,0-245.21-109.88-245.21-245.21V-244.73h0Z" transform="translate(895.56 -269.07) rotate(89.91)"/>
  <path class="cls-2" d="M269.04,90.27h825.56v447.41H269.04c-109.6,0-198.57-88.98-198.57-198.57v-50.26c0-109.6,88.98-198.57,198.57-198.57Z" transform="translate(-.51 .95) rotate(-.09)"/>
  <path d="M330.26,141.08l-.25,151.16,672.97,1.1-.08,51.62-672.97-1.1-.25,151.16c-56.42-58.15-169.97-179.28-169.97-179.28l170.55-174.67Z"/>
</svg>