<?xml version="1.0" encoding="UTF-8"?>
<svg id="_기본_비주얼" data-name="기본_비주얼" xmlns="http://www.w3.org/2000/svg" viewBox="0 0 942.51 587.69">
  <defs>
    <style>
      .cls-1 {
        stroke: #284a9f;
        stroke-miterlimit: 10;
        stroke-width: 2.5px;
      }

      .cls-1, .cls-2 {
        fill: #fff;
      }

      .cls-3 {
        fill: #0b4cdc;
      }
    </style>
  </defs>
  <path class="cls-1" d="M418.48-2.3h124.11c29.61,0,53.66,24.04,53.66,53.66v485.18c0,29.61-24.04,53.66-53.66,53.66h-124.11c-29.61,0-53.66-24.04-53.66-53.66V51.35c0-29.61,24.04-53.66,53.66-53.66Z" transform="translate(773.69 -187.07) rotate(89.91)"/>
  <rect class="cls-3" x="196.77" y="190.98" width="567.52" height="205.92" rx="41.04" ry="41.04" transform="translate(-.48 .79) rotate(-.09)"/>
  <g>
    <path class="cls-2" d="M266.87,264.66l.04,22.32,50.03-.08.03,20.97-50.03.08.07,40.59-23.07.04-.17-104.86,79.84-.13.03,20.97-56.77.09Z"/>
    <path class="cls-2" d="M340.11,259.3l-.03-20.22,23.97-.04.03,20.22-23.97.04ZM340.86,348.43l-.13-80.29,22.77-.04.13,80.29-22.77.04Z"/>
    <path class="cls-2" d="M435.82,348.27l-.07-44.79c-.02-10.79-5.12-16.32-13.81-16.31-8.69.01-14.22,5.57-14.2,16.35l.07,44.79-22.77.04-.13-80.29,22.77-.04.02,11.38c5.23-6.75,11.96-12.9,23.5-12.92,17.23-.03,27.28,11.34,27.31,29.76l.08,51.98-22.77.04Z"/>
    <path class="cls-2" d="M536.33,348.11l-.02-11.53c-5.53,7.5-13.16,13.05-24.99,13.07-18.72.03-36.58-14.62-36.62-41.43v-.3c-.04-26.81,17.46-41.52,36.48-41.55,12.13-.02,19.63,5.51,25.04,11.94l-.06-39.55,22.77-.04.18,109.35-22.77.04ZM536.57,307.81c-.02-13.33-8.88-22.16-19.51-22.14-10.64.02-19.61,8.72-19.59,22.2v.3c.02,13.33,9.02,22.16,19.66,22.14,10.63-.02,19.46-8.87,19.44-22.2v-.3Z"/>
    <path class="cls-2" d="M654.02,315.71l-55.87.09c2.26,10.33,9.46,15.71,19.65,15.7,7.64-.01,13.18-2.42,19.46-8.27l13.05,11.51c-7.47,9.3-18.25,15.01-32.78,15.03-24.12.04-41.97-16.86-42.01-41.42v-.3c-.04-22.92,16.26-41.82,39.63-41.86,26.81-.04,39.13,20.76,39.17,43.53v.3c0,2.25-.14,3.6-.29,5.69ZM615.17,284.47c-9.44.02-15.57,6.77-17.35,17.11l34.3-.06c-1.36-10.18-7.37-17.06-16.95-17.05Z"/>
    <path class="cls-2" d="M718.38,289.84c-15.13.02-24.4,9.18-24.37,28.35l.05,29.66-22.77.04-.13-80.29,22.77-.04.03,16.18c4.62-11.09,12.1-18.29,25.59-17.72l.04,23.82h-1.2Z"/>
  </g>
</svg>