<?xml version="1.0" encoding="UTF-8"?>
<svg id="_기본_비주얼" data-name="기본_비주얼" xmlns="http://www.w3.org/2000/svg" viewBox="0 0 942.51 587.69">
  <defs>
    <style>
      .cls-1 {
        stroke: #284a9f;
        stroke-miterlimit: 10;
        stroke-width: 7.27px;
      }

      .cls-1, .cls-2 {
        fill: #fff;
      }

      .cls-3 {
        fill: #0b4cdc;
      }
    </style>
  </defs>
  <path class="cls-1" d="M142.85,491.84c-29.6,0-55.25-17.98-65.35-45.8-10.1-27.82-1.96-58.07,20.74-77.06L410.43,107.8c12.49-10.45,28.33-16.2,44.62-16.2s32.13,5.75,44.62,16.2l312.19,261.19c22.7,18.99,30.84,49.24,20.74,77.06-10.1,27.82-35.76,45.8-65.35,45.8H142.85Z"/>
  <path class="cls-3" d="M424.6,124.74L112.41,385.92c-34,28.44-13.88,83.83,30.44,83.83h624.37c44.33,0,64.44-55.39,30.44-83.83L485.49,124.74c-17.62-14.74-43.27-14.74-60.89,0Z"/>
  <g>
    <path class="cls-2" d="M268.39,424.17l-33.12-45.32-12.31,12.81.05,32.59-23.45.04-.17-106.59,23.45-.04.08,46.59,43.17-46.66,28.32-.05-43.32,45.29,45.48,61.29-28.17.05Z"/>
    <path class="cls-2" d="M379.49,391.25l-56.8.09c2.3,10.5,9.62,15.97,19.97,15.96,7.77-.01,13.4-2.46,19.78-8.41l13.27,11.7c-7.6,9.45-18.55,15.26-33.32,15.28-24.52.04-42.66-17.14-42.7-42.11v-.3c-.04-23.3,16.53-42.51,40.28-42.55,27.26-.04,39.78,21.1,39.82,44.24v.3c0,2.28-.15,3.65-.29,5.79ZM340,359.49c-9.59.02-15.82,6.88-17.63,17.39l34.87-.06c-1.39-10.35-7.49-17.35-17.23-17.33Z"/>
    <path class="cls-2" d="M472.83,391.09l-56.8.09c2.3,10.5,9.62,15.97,19.97,15.96,7.77-.01,13.4-2.46,19.78-8.41l13.27,11.7c-7.6,9.45-18.55,15.26-33.32,15.28-24.52.04-42.66-17.14-42.7-42.11v-.3c-.04-23.3,16.53-42.51,40.28-42.55,27.26-.04,39.78,21.1,39.82,44.24v.3c0,2.28-.15,3.65-.29,5.79ZM433.34,359.33c-9.59.02-15.82,6.88-17.63,17.39l34.87-.06c-1.39-10.35-7.49-17.35-17.23-17.33Z"/>
    <path class="cls-2" d="M538.97,425.25c-12.33.02-19.96-5.6-25.45-12.14l.06,35.02-23.14.04-.17-105.98,23.14-.04.02,11.72c5.62-7.62,13.38-13.27,25.41-13.29,19.03-.03,37.18,14.86,37.22,42.12v.3c.04,27.26-17.75,42.21-37.08,42.24ZM552.91,382.74c-.02-13.55-9.17-22.52-19.98-22.5-10.81.02-19.78,9.02-19.76,22.57v.3c.02,13.55,9.02,22.52,19.83,22.5,10.81-.02,19.93-8.86,19.91-22.57v-.3Z"/>
    <path class="cls-2" d="M668.95,390.77l-56.8.09c2.3,10.5,9.62,15.97,19.97,15.96,7.77-.01,13.4-2.46,19.78-8.41l13.27,11.7c-7.6,9.45-18.55,15.26-33.32,15.28-24.52.04-42.66-17.14-42.7-42.11v-.3c-.04-23.3,16.53-42.51,40.28-42.55,27.26-.04,39.78,21.1,39.82,44.24v.3c0,2.28-.15,3.65-.29,5.79ZM629.46,359.01c-9.59.02-15.82,6.88-17.63,17.39l34.87-.06c-1.39-10.35-7.49-17.35-17.23-17.33Z"/>
    <path class="cls-2" d="M734.38,364.47c-15.38.03-24.8,9.33-24.77,28.82l.05,30.15-23.14.04-.13-81.62,23.14-.04.03,16.44c4.7-11.28,12.3-18.6,26.01-18.01l.04,24.21h-1.22Z"/>
  </g>
</svg>