<?xml version="1.0" encoding="UTF-8"?>
<svg id="_기본_비주얼" data-name="기본_비주얼" xmlns="http://www.w3.org/2000/svg" viewBox="0 0 1400.68 931.54">
  <defs>
    <style>
      .cls-1 {
        font-family: Gotham-Bold, Gotham;
        font-size: 333.26px;
        font-weight: 700;
      }

      .cls-1, .cls-2 {
        fill: #fff;
      }

      .cls-2 {
        stroke: #284a9f;
        stroke-miterlimit: 10;
        stroke-width: 5.55px;
      }

      .cls-3 {
        fill: #0b4cdc;
      }
    </style>
  </defs>
  <path class="cls-2" d="M219.02-116.19h321.99V403.23c0,80.6-65.43,146.03-146.03,146.03h-29.93c-80.6,0-146.03-65.43-146.03-146.03V-116.19h0Z" transform="translate(595.93 -163.83) rotate(89.91)"/>
  <path class="cls-3" d="M193.32,83.32h491.65v266.44H193.32c-65.27,0-118.26-52.99-118.26-118.26v-29.93c0-65.27,52.99-118.26,118.26-118.26Z" transform="translate(-.35 .62) rotate(-.09)"/>
  <path class="cls-2" d="M558.1-2.03h276.11c65.88,0,119.37,53.49,119.37,119.37v1079.43c0,65.89-53.49,119.38-119.38,119.38h-276.11c-65.88,0-119.37-53.49-119.37-119.37V117.34c0-65.88,53.49-119.37,119.37-119.37Z" transform="translate(1352.08 -40.18) rotate(89.91)"/>
  <rect class="cls-3" x="64.85" y="428" width="1262.63" height="458.12" rx="91.3" ry="91.3" transform="translate(-1.07 1.14) rotate(-.09)"/>
  <text class="cls-1" transform="translate(145.54 774.9) rotate(-.09)"><tspan x="0" y="0">Finder</tspan></text>
  <path d="M1193.7,122.62l-.03.04c-5.07,6.01-4.75,14.89.75,20.52l48.46,49.62c2.52,2.58.7,6.92-2.91,6.93l-101.27.17c-8.44.01-15.26,6.86-15.25,15.3v.2c.01,8.44,6.86,15.26,15.3,15.25l101.3-.17c3.61,0,5.44,4.33,2.93,6.92l-48.3,49.77c-5.48,5.65-5.77,14.53-.68,20.52h0c5.86,6.9,16.39,7.23,22.66.69,26.08-27.18,62.2-65.54,79.49-83.94,5.6-5.96,5.5-15.27-.22-21.12l-79.63-81.52c-6.3-6.45-16.79-6.07-22.6.82Z"/>
  <path d="M528.84,113.57l.15,90.02-400.78.66.05,30.74,400.78-.66.15,90.02c33.6-34.63,101.22-106.77,101.22-106.77l-101.57-104.02Z"/>
  <path d="M984.75,109.95l-19.82,23.5c10.43,30.98,30.28,51.36,64.66,73.45l-249.74-6.59.05,30.74,249.72-6.6c-33.63,22.15-54.67,43.24-64.39,72.86l19.9,23.43c12.16-41.21,62.4-76.89,111.18-106.57-50.89-30.07-98.7-63.86-111.55-104.21Z"/>
</svg>